<svg xmlns="http://www.w3.org/2000/svg" viewBox="0 0 96 96">
  <defs>
    <linearGradient id="signalLoomCoral" x1="14" y1="64" x2="82" y2="28" gradientUnits="userSpaceOnUse">
      <stop offset="0" stop-color="#ff7c51" />
      <stop offset="1" stop-color="#f1c27d" />
    </linearGradient>
    <linearGradient id="signalLoomTeal" x1="14" y1="30" x2="82" y2="64" gradientUnits="userSpaceOnUse">
      <stop offset="0" stop-color="#7de7cf" />
      <stop offset="1" stop-color="#00a886" />
    </linearGradient>
    <linearGradient id="signalLoomThreads" x1="48" y1="18" x2="48" y2="78" gradientUnits="userSpaceOnUse">
      <stop offset="0" stop-color="#93f0d7" stop-opacity="0.1" />
      <stop offset="0.5" stop-color="#93f0d7" stop-opacity="0.55" />
      <stop offset="1" stop-color="#93f0d7" stop-opacity="0.12" />
    </linearGradient>
  </defs>

  <rect x="4" y="4" width="88" height="88" rx="28" fill="#132436" />
  <rect x="4.75" y="4.75" width="86.5" height="86.5" rx="27.25" fill="none" stroke="rgba(255,255,255,0.12)" />

  <g stroke="url(#signalLoomThreads)" stroke-width="4" stroke-linecap="round">
    <path d="M28 24v48" />
    <path d="M48 18v60" />
    <path d="M68 24v48" />
  </g>

  <path
    d="M18 58c10 0 10-20 20-20s10 20 20 20 10-20 20-20"
    fill="none"
    stroke="url(#signalLoomCoral)"
    stroke-width="9"
    stroke-linecap="round"
    stroke-linejoin="round"
  />
  <path
    d="M18 38c10 0 10 20 20 20s10-20 20-20 10 20 20 20"
    fill="none"
    stroke="url(#signalLoomTeal)"
    stroke-width="9"
    stroke-linecap="round"
    stroke-linejoin="round"
  />

  <circle cx="48" cy="48" r="6.5" fill="#f6eee3" />
  <circle cx="48" cy="48" r="3.5" fill="#f1c27d" />
</svg>
